<svg aria-hidden="true" style="position:absolute;width:0;height:0" xmlns="http://www.w3.org/2000/svg" overflow="hidden"><defs>

<symbol id="icon-antenna" viewBox="0 0 32 32"><path fill="var(--color1, #212121)" d="M30.775 22.099l-8.444-8.506.937-4.616c.225.09.485.144.758.146h.033a2.16 2.16 0 10-2.029-1.42l-.005-.015-4.96.606L8.974.16A.53.53 0 008.597 0a.536.536 0 00-.373.155L6.712 1.659a.535.535 0 000 .754l.814.825C6.383 5.3 5.71 7.76 5.71 10.377c0 4.106 1.656 7.825 4.336 10.526l-.001-.001a.49.49 0 00.146.097 2.986 2.986 0 00-.052.546v6.188h-6.4a2.67 2.67 0 00-2.668 2.666v1.067c0 .295.239.534.534.534H26.14a.534.534 0 00.533-.534v-1.067a2.67 2.67 0 00-2.666-2.667h-6.401V24.99a14.79 14.79 0 0010.167-1.502l-.077.039.818.823a.534.534 0 00.376.16.536.536 0 00.373-.155l1.512-1.504a.535.535 0 000-.754zM23.281 6.234a1.067 1.067 0 11.752 1.824h-.004a1.066 1.066 0 01-.747-1.823h-.002zm-1.255 3.504l-.598 2.946-1.175-1.183 1.774-1.763zm-.606-.902l-1.92 1.909-1.486-1.494 3.406-.416zm2.586 19.966a1.6 1.6 0 011.6 1.6v.534H2.138v-.534a1.6 1.6 0 011.6-1.6h20.268zm-7.467-2.134v1.067h-5.334v-1.067h5.334zm-5.334-1.066v-4.054c0-1.294 1.196-2.347 2.667-2.347s2.667 1.053 2.667 2.347v4.054h-5.334zm6.4-1.697v-2.358c0-1.882-1.675-3.413-3.734-3.413h-.058c-1.353 0-2.54.707-3.214 1.771l-.009.016a13.819 13.819 0 01-3.812-9.55c0-2.314.567-4.496 1.569-6.415l-.036.077 18.603 18.71c-1.823.947-3.98 1.502-6.266 1.502a13.9 13.9 0 01-3.136-.357l.093.018zm11.29-.683L7.837 2.04l.754-.752 7.936 7.98c.004 0 .006.007.01.01L29.652 22.47l-.757.752z"/><path fill="var(--color2, #2196f3)" d="M13.877 20.268h-.007a1.6 1.6 0 00-.003 3.2h.007a1.6 1.6 0 00.002-3.2zm.373 1.978a.534.534 0 11-.378-.913.533.533 0 01.374.911h.005z"/></symbol><symbol id="icon-form-tel" viewBox="0 0 32 32"><path d="M24.885 19.777l-3.268-.373a2.556 2.556 0 00-2.111.732l-2.368 2.368c-3.67-1.894-6.586-4.811-8.429-8.373l-.051-.108 2.383-2.377a2.555 2.555 0 00.731-2.123l.001.012-.373-3.243a2.578 2.578 0 00-2.557-2.276H6.614c-1.454 0-2.663 1.209-2.575 2.662.683 10.988 9.472 19.765 20.447 20.447 1.453.089 2.663-1.12 2.663-2.575v-2.226-.012a2.55 2.55 0 00-2.253-2.533l-.012-.001z"/></symbol><symbol id="icon-form-email" viewBox="0 0 32 32"><path d="M26.67 5.334H5.334a2.663 2.663 0 00-2.653 2.667l-.014 16.002c0 1.467 1.2 2.667 2.667 2.667H26.67c1.467 0 2.667-1.2 2.667-2.667V8.001c0-1.467-1.2-2.667-2.667-2.667zm-.533 5.668l-9.427 5.892a1.343 1.343 0 01-1.421-.004l.006.003-9.427-5.892a1.133 1.133 0 111.205-1.918l-.004-.003 8.935 5.587 8.935-5.588a1.133 1.133 0 111.206 1.918L26.14 11z"/></symbol><symbol id="icon-icon-check" viewBox="0 0 34 32"><path fill="var(--color1, #fff)" stroke="var(--color1, #fff)" stroke-width=".427" d="M8.447 16.538l-.147-.141-.147.139-2.058 1.951.162.156 7.61 7.258.147-.141 16.18-15.435-.162-.154-2.03-1.936-.147.141-13.988 13.333-5.42-5.17z"/></symbol><symbol id="icon-form-person" viewBox="0 0 32 32"><path d="M16 16c2.947 0 5.333-2.387 5.333-5.333S18.946 5.334 16 5.334c-2.947 0-5.333 2.387-5.333 5.333S13.054 16 16 16zm0 2.667c-3.56 0-10.667 1.787-10.667 5.333v1.333c0 .733.6 1.333 1.333 1.333h18.667c.733 0 1.333-.6 1.333-1.333V24c0-3.547-7.107-5.333-10.667-5.333z"/></symbol><symbol id="icon-icon-send" viewBox="0 0 32 32"><path fill="var(--color1, #fff)" d="M32.01 0L0 18.006l10.23 3.788L26.008 7.003 14.007 23.195l.009.003-.012-.003v8.816l5.736-6.693 7.269 2.692 5-28.009z"/></symbol><symbol id="icon-astronaut" viewBox="0 0 32 32"><path fill="var(--color2, #2196f3)" d="M31.976 4.524a.535.535 0 00-.427-.362h-.003l-1.911-.278-.855-1.731c-.179-.365-.777-.365-.956 0l-.855 1.731-1.911.278a.534.534 0 00-.296.91l1.384 1.348-.326 1.903a.532.532 0 00.774.562l1.709-.899 1.709.899a.534.534 0 00.773-.565v.003l-.326-1.903 1.383-1.348a.535.535 0 00.134-.55l.001.004zm-2.463 1.328a.53.53 0 00-.153.472l.191 1.114-1-.526a.525.525 0 00-.501.001l.003-.001-1 .526.191-1.114a.53.53 0 00-.152-.472l-.811-.79L27.4 4.9a.532.532 0 00.402-.292l.5-1.013.5 1.013a.532.532 0 00.402.292l1.119.162-.809.79zm-3.378 14.671h-1.067v1.067h1.067v-1.067zm0 2.134h-1.067v1.066h1.067v-1.066zm1.067-1.067h-1.067v1.067h1.067V21.59zm-2.133 0h-1.067v1.067h1.067V21.59zm-2.668 4.801h-1.067v1.067h1.067v-1.067zm0 2.133h-1.067v1.067h1.067v-1.067zm1.067-1.066h-1.067v1.067h1.067v-1.067zm-2.133 0h-1.067v1.067h1.067v-1.067zm-5.334-3.2h-1.067v1.067h1.067v-1.067zm0 2.133h-1.067v1.067h1.067v-1.067zm1.067-1.067h-1.067v1.067h1.067v-1.067zm-2.134 0h-1.067v1.067h1.067v-1.067zM5.867 6.122H4.8v1.067h1.067V6.122zm0 2.134H4.8v1.067h1.067V8.257zm1.066-1.067H5.866v1.067h1.067V7.189zm-2.133 0H3.733v1.067H4.8V7.189z"/><path fill="var(--color1, #212121)" d="M24.716 14.16a1.776 1.776 0 00-1.179-.703l-.009-.001a1.769 1.769 0 00-1.344.355l.004-.003-1.253.96-1.898 1.417-1.358-.541c2.421-1.086 4.114-3.508 4.114-6.32 0-3.823-3.122-6.934-6.961-6.934S7.87 5.501 7.87 9.324c0 1.386.415 2.674 1.12 3.759l-2.769-.024c-.009 0-.016.005-.023.005a.511.511 0 00-.159.033l.004-.001c-.013.005-.026.007-.038.013-.006.003-.013.003-.019.006l-3.233 1.596-.001.001-1.893.91a.5.5 0 00-.065.036l.001-.001a1.782 1.782 0 00-.594 2.306l-.005-.01c.22.424.592.742 1.044.885l.013.003a1.772 1.772 0 001.388-.133l-.009.005 1.388-.738 2.264-1.169 1.357-.008-5.442 5.416-.001.001-1.339 1.333a1.643 1.643 0 00-.491 1.174v.005a1.668 1.668 0 001.667 1.664h.002a1.67 1.67 0 001.18-.485l1.314-1.309 1.741-1.3.901.897-3.102 3.089a1.643 1.643 0 00-.491 1.174v.004a1.662 1.662 0 001.667 1.664h.003a1.67 1.67 0 001.18-.485l4.489-4.473c.007-.006.016-.009.022-.016l5.166-5.658 3.471.494a.474.474 0 00.262-.032c.017-.006.032-.015.049-.023.019-.01.039-.015.058-.027l3.213-2.133c.012-.008.018-.021.029-.03.013-.01.029-.014.041-.026l1.271-1.191c.348-.326.564-.787.564-1.3 0-.4-.132-.769-.355-1.067l.003.005zM2.13 17.771a.706.706 0 01-.564.05l.005.001a.717.717 0 01-.215-1.258l.002-.001 1.314-.632.316.924.133.389-.992.527zm3.498-1.828l-1.548.8-.255-.747-.184-.537 2.027-1.001-.04 1.484zm15.1-6.62c0 .918-.219 1.785-.599 2.56l-4.182-1.9a1.865 1.865 0 00-.782-1.384l-.006-.004 1.464-4.861c2.377.757 4.104 2.975 4.104 5.588zm-11.789 0c0-3.235 2.644-5.867 5.895-5.867.253 0 .5.022.745.053l-1.432 4.753c-.019 0-.037-.006-.057-.006h-.001a1.872 1.872 0 00-1.872 1.867 1.872 1.872 0 001.872 1.867h.001c.695 0 1.295-.383 1.618-.944l3.863 1.755a5.891 5.891 0 01-4.737 2.39c-3.251 0-5.895-2.632-5.895-5.867zm5.957.8c0 .441-.362.8-.806.8h-.001a.804.804 0 01-.804-.8c0-.441.361-.8.806-.8s.806.359.806.8zM2.465 25.148a.606.606 0 01-.855.001.591.591 0 010-.844l.962-.959.852.848-.959.955zm3.214 3.733a.606.606 0 01-.855.001.591.591 0 010-.844l.963-.959.852.848-.96.956zm3.481-3.469l-.001.001-1.765 1.76-.852-.848 1.765-1.757a.527.527 0 00.09-.136c.007-.014.02-.026.026-.04.016-.041.019-.085.026-.128.003-.025.014-.048.014-.073 0-.035-.013-.07-.02-.105-.006-.032-.006-.064-.019-.096a.536.536 0 00-.092-.138c-.01-.012-.014-.027-.025-.038h-.001l-.001-.002-1.607-1.6c-.017-.017-.039-.024-.058-.038a.491.491 0 00-.084-.056l-.003-.001a.527.527 0 00-.09-.031l-.003-.001a.502.502 0 00-.101-.02h-.025a.603.603 0 00-.075.005h.003c-.036.005-.069.009-.104.021s-.064.027-.094.045c-.02.011-.043.015-.061.029l-1.774 1.324-.901-.897 2.399-2.386 4.36 4.289-.928.919zm6.82-7.017c-.016-.002-.03.004-.046.003l-.027-.001a.562.562 0 00-.092.008h.003a.484.484 0 00-.187.07l.002-.001a.492.492 0 00-.083.061c-.013.011-.028.016-.04.029l-4.698 5.146-4.329-4.257 2.833-2.818a.535.535 0 00-.378-.911h-.002l-2.219.013.028-1.607 3.104.027a6.929 6.929 0 004.979 2.101h.003c.438 0 .864-.046 1.28-.123.04.032.08.064.129.085l2.41.96.152.758.178.886-3.003-.427zm4.041.178l-.313-1.558 1.447-1.08.946 1.257-2.08 1.382zm3.754-2.831l-.838.785-.931-1.236.831-.637a.735.735 0 01.543-.143.718.718 0 01.621.71.71.71 0 01-.226.521z"/><path fill="var(--color1, #212121)" d="M13.603 18.545l-2.143-2.134a.53.53 0 00-.752 0l-2.143 2.134a.535.535 0 000 .756l2.142 2.134a.53.53 0 00.753 0l2.143-2.134a.532.532 0 000-.756zm-2.519 1.759l-1.387-1.381 1.387-1.381 1.387 1.381-1.387 1.381zm6.081-15.233l-.258 1.036c.071.018 1.738.452 1.738 2.149h1.067c0-2.017-1.666-2.965-2.547-3.185zm2.547 4.252h-1.067v1.067h1.067V9.323z"/></symbol><symbol id="icon-brand" viewBox="0 0 43 32"><path  d="M3.239 26.375a.98.98 0 01.25.665.964.964 0 01-.092.466L3.4 27.5a1.057 1.057 0 01-.296.378l-.002.002a1.776 1.776 0 01-1.13.306h.006H.001v-4.215h1.936a1.76 1.76 0 011.079.283l-.007-.004a.981.981 0 01.289.354.893.893 0 01.086.436.92.92 0 01-.225.644c-.15.168-.358.283-.59.33.262.044.499.172.667.361zM.92 25.739h.828a.843.843 0 00.526-.14.516.516 0 00.14-.184l.001-.003a.46.46 0 00.038-.185l-.002-.042v.002l.001-.035a.475.475 0 00-.04-.192l.001.003a.51.51 0 00-.138-.187l-.001-.001a.845.845 0 00-.545-.142h.003-.815v1.106zm1.435 1.617a.527.527 0 00.151-.19l.001-.003a.472.472 0 00.044-.202l-.001-.035v.002l.001-.031a.49.49 0 00-.047-.21l.001.003a.534.534 0 00-.154-.193l-.001-.001a.898.898 0 00-.565-.152h.003H.92v1.16h.88a.94.94 0 00.556-.146zm4.842.832L6.121 26.54h-.405v1.648h-.927v-4.215h1.755a1.83 1.83 0 011.226.362l-.005-.003a1.293 1.293 0 01.42.938c0 .307-.109.589-.291.808l.002-.002a1.461 1.461 0 01-.829.427l-.008.001 1.147 1.684H7.198zm-1.482-2.223h.758c.526 0 .79-.212.79-.638l.001-.034a.58.58 0 00-.045-.225l.001.004a.628.628 0 00-.15-.218.865.865 0 00-.6-.171h.003-.767l.009 1.283zm6.548 1.374h-1.847l-.326.849h-.972l1.695-4.168h1.051l1.689 4.168h-.971l-.319-.848zm-.248-.638l-.675-1.779-.675 1.779h1.349zm6.588 1.487h-.919l-2.063-2.866v2.866h-.918v-4.216h.918l2.063 2.884v-2.884h.919v4.216zm5.25-1.009c-.191.318-.48.577-.833.744a2.883 2.883 0 01-1.219.267l-.079-.001h.004-1.637v-4.215h1.637l.077-.001c.441 0 .859.096 1.235.267l-.019-.008c.352.163.642.419.832.735.189.343.288.722.288 1.106s-.099.763-.288 1.106zm-1.052-.101c.25-.261.404-.616.406-1.006 0-.369-.144-.726-.407-1.006a1.681 1.681 0 00-1.157-.358h.005-.639v2.729h.639a1.69 1.69 0 001.156-.361l-.004.003zM12.839.524s11.873 4.104 11.622 10.044v10.046s-11.865-4.106-11.618-10.046L12.839.524zm22.199 17.737a17.218 17.218 0 017.544-2.545V12.57c-3.12 1.102-5.767 3.098-7.544 5.691z"/><path d="M33.691 19.209c1.835-3.384 5.017-5.995 8.891-7.297V2.851S25.672 8.698 26.03 17.156v14.303s.754-.261 1.939-.752c0-.457 0-.919.054-1.382.349-3.926 2.388-7.565 5.668-10.116z"/><path  d="M32.083 24.522a13.62 13.62 0 01.592-2.928c-2.043 2.203-3.279 4.936-3.536 7.816-.025.272-.039.543-.045.824a47.103 47.103 0 003.524-1.703l-.273.133a13.57 13.57 0 01-.263-4.142zm.673.052a13.013 13.013 0 00.224 3.835l-.015-.084c4.62-2.532 9.811-6.442 9.611-11.168v-.412c-3.301.338-6.389 1.659-8.79 3.761a12.808 12.808 0 00-1.026 4.019l-.004.051z"/></symbol><symbol id="icon-clock" viewBox="0 0 32 32"><path fill="var(--color1, #212121)" d="M31.298 15.302C31.297 6.849 24.443-.002 15.989 0S.685 6.856.687 15.309c.002 6.788 4.422 12.543 10.542 14.546l.108.031a.667.667 0 00.529-.065.636.636 0 00.283-.357l3.865-12.251a1.913 1.913 0 10-.852-3.63l.011-.005-5.106-5.107a.638.638 0 00-.902.902l5.103 5.109a1.847 1.847 0 00-.191.826c0 .602.283 1.137.723 1.48l.004.003-3.682 11.674C3.844 25.784.117 17.71 2.798 10.432S13.553-.573 20.831 2.108c7.278 2.681 11.005 10.755 8.324 18.033-1.345 3.581-4.003 6.407-7.374 7.939l-.088.036-.398-1.874a.639.639 0 00-1.05-.343l.001-.001-3.837 3.426a.637.637 0 00.227 1.083l.005.001 4.899 1.564a.637.637 0 00.818-.744l.001.004-.391-1.839c5.528-2.375 9.329-7.772 9.329-14.057v-.034.002zm-15.305-.637a.638.638 0 010 1.276.638.638 0 010-1.276zm2.1 14.865l2.184-1.948.603 2.84-2.787-.892z"/><path fill="var(--color2, #2196f3)" d="M15.355 3.185v1.276a.638.638 0 001.276 0V3.185a.638.638 0 00-1.276 0zM3.876 14.665a.638.638 0 000 1.276h1.276a.638.638 0 000-1.276H3.876zM28.11 15.94a.638.638 0 000-1.276h-1.276a.638.638 0 000 1.276h1.276z"/></symbol><symbol id="icon-company" viewBox="0 0 34 32"><path d="M5.644 31.323c.012 0 .024.003.035.008s.021.011.03.018l.166.159c-.13.129-.289.232-.468.302a1.78 1.78 0 01-.62.109l-.045-.001h.002a1.751 1.751 0 01-.623-.101 1.365 1.365 0 01-.47-.286l.001.001a1.294 1.294 0 01-.301-.432l-.003-.008a1.446 1.446 0 01-.106-.548v-.018-.028c0-.388.168-.737.436-.977l.001-.001a1.52 1.52 0 01.498-.287 1.96 1.96 0 01.642-.101h.04c.199 0 .39.034.569.096l-.012-.004c.165.063.316.149.447.255l-.139.169a.143.143 0 01-.035.03h-.001a.098.098 0 01-.048.013h-.008a.132.132 0 01-.062-.018h.001l-.074-.046-.104-.058a1.182 1.182 0 00-.321-.1l-.007-.001a1.376 1.376 0 00-.23-.018h-.019.001-.015c-.16 0-.313.028-.455.079l.009-.003a1.06 1.06 0 00-.363.214l.001-.001a.977.977 0 00-.235.339 1.117 1.117 0 00-.085.432v.017-.001.019c0 .157.031.307.088.444l-.003-.008a.953.953 0 00.576.548c.136.049.281.073.428.072.085.001.17-.004.254-.014.211-.022.4-.106.55-.234l-.001.001a.133.133 0 01.078-.029zm4.8-.798v.017c0 .197-.041.384-.116.554l.003-.009a1.23 1.23 0 01-.311.435l-.001.001c-.138.123-.302.22-.481.283l-.01.003a2.03 2.03 0 01-1.278-.004l.014.004a1.457 1.457 0 01-.489-.289l.001.001a1.28 1.28 0 01-.313-.432l-.003-.008a1.454 1.454 0 01.004-1.134l-.004.01c.071-.165.178-.315.316-.442a1.45 1.45 0 01.488-.277 2.003 2.003 0 011.278.004l-.014-.004c.184.065.351.162.49.287a1.296 1.296 0 01.426 1.001zm-.436 0v-.024a1.19 1.19 0 00-.082-.436l.003.008a.934.934 0 00-.567-.548l-.007-.002a1.455 1.455 0 00-.928.003l.01-.003a.988.988 0 00-.352.214.914.914 0 00-.223.331l-.002.006a1.321 1.321 0 00.003.911l-.003-.009c.101.261.31.46.57.547l.007.002c.296.097.622.097.918 0a.998.998 0 00.351-.211.949.949 0 00.223-.338c.056-.145.082-.298.079-.451zm3.711.474l.043.101c.017-.036.031-.069.048-.101.019-.039.037-.072.056-.103l-.002.004 1.062-1.677c.021-.029.04-.047.061-.053s.047-.009.073-.009h.015-.001.314v2.728h-.372v-2.09a.68.68 0 010-.096v.002l-1.069 1.701a.158.158 0 01-.062.061h-.001a.19.19 0 01-.09.023h-.064a.183.183 0 01-.09-.023h.001a.15.15 0 01-.061-.061v-.001l-1.1-1.712v2.19h-.359v-2.722h.328c.026 0 .051.003.075.01h-.002c.026.011.046.03.058.053l1.085 1.679c.02.028.038.06.053.094l.001.004zm3.996-.136v1.021H17.3V29.16h.927c.175-.003.349.018.517.059.134.034.259.091.366.17.089.07.159.16.206.262l.002.004c.05.111.073.23.071.349v.017a.755.755 0 01-.299.603l-.002.001a1.062 1.062 0 01-.368.18c-.14.04-.301.064-.468.064h-.035l-.501-.008zm0-.293h.503c.109.002.218-.013.322-.041a.69.69 0 00.234-.119l-.002.001a.522.522 0 00.191-.404V30l.001-.029a.453.453 0 00-.043-.195l.001.003a.529.529 0 00-.144-.185l-.001-.001a.888.888 0 00-.563-.146h.003-.503v1.123zm5.585 1.318h-.334a.15.15 0 01-.086-.026h.001a.169.169 0 01-.054-.062v-.001l-.282-.658h-1.42l-.293.658a.156.156 0 01-.141.088h-.333l1.247-2.728h.432l1.264 2.728zm-2.057-1.013h1.172l-.494-1.11a1.875 1.875 0 01-.094-.256l-.048.143a.876.876 0 01-.046.116l-.49 1.108zm3.853-1.702a.173.173 0 01.062.048l1.818 2.057V29.16h.372v2.728h-.212a.204.204 0 01-.082-.017h.001a.221.221 0 01-.066-.05l-1.816-2.055.001.047-.002.049v-.002 2.027H24.8v-2.728h.22c.025 0 .051.005.075.013zm5.315 1.631v1.083h-.415v-1.082l-1.149-1.643h.381a.16.16 0 01.081.023h-.001a.234.234 0 01.056.062l.719 1.06a1.274 1.274 0 01.128.242l.053-.117c.021-.043.044-.084.071-.124l.709-1.067a.293.293 0 01.053-.058.137.137 0 01.082-.027h.384l-1.151 1.65zm-16.898-6.222c.181.02.364.036.549.05 2.804-1.09 5.176-2.873 6.819-5.128s2.485-4.88 2.421-7.548l-3.09-2.684c.629 2.84.335 5.777-.848 8.481s-3.209 5.068-5.851 6.829z"/><path d="M12.41 24.457l.083.015c2.823-1.755 4.974-4.205 6.178-7.033s1.402-5.906.572-8.833l-4.401-3.824c1.78 3.143 2.497 6.661 2.065 10.144-.43 3.483-1.989 6.787-4.497 9.53zm14.926-9.348c-.748 2.932-2.564 5.576-5.179 7.54a16.26 16.26 0 01-2.368 1.491l-.092.043c2.129-.543 4.086-1.504 5.72-2.809s2.901-2.918 3.704-4.715l-1.785-1.549z"/><path d="M26.635 14.678l-2.541-2.208c-.049 2.517-.873 4.977-2.385 7.124s-3.661 3.904-6.219 5.086h.012c.57 0 1.139-.03 1.706-.088 2.391-.848 4.503-2.197 6.148-3.927s2.772-3.786 3.279-5.986zM12.778 3.17L9.746.533c-2.71.91-5.041 2.51-6.688 4.59S.526 9.667.518 12.191c.01 2.789 1.091 5.496 3.071 7.692 1.979 2.195 4.746 3.755 7.861 4.431 2.78-2.943 4.408-6.58 4.647-10.382s-.924-7.572-3.32-10.761zM33.64 14.272c-.011-3.309-1.529-6.48-4.222-8.821s-6.344-3.659-10.153-3.669h-.028a16.12 16.12 0 00-5.232.867l.114-.034 18.562 16.127a10.77 10.77 0 00.96-4.469v-.001z"/></symbol><symbol id="icon-diagram" viewBox="0 0 32 32"><path fill="var(--color2, #2196f3)" d="M14.927 14.966h1.066v4.798h-1.066v-4.798zm4.264 2.132h1.066v2.665h-1.066v-2.665zm-8.529 1.599h1.066v1.066h-1.066v-1.066zm-3.199-.533h1.066v1.599H7.463v-1.599z"/><path fill="var(--color1, #212121)" d="M1.599 28.292h25.588a1.6 1.6 0 001.599-1.599v-2.132a1.6 1.6 0 00-1.599-1.599h-.533V9.667l3.028-2.868a1.608 1.608 0 10-.742-.752l-.004-.01-2.281 2.162v-1.23a1.6 1.6 0 00-1.599-1.599H3.732a1.6 1.6 0 00-1.599 1.599v15.993H1.6a1.6 1.6 0 00-1.599 1.599v2.132A1.6 1.6 0 001.6 28.292zM30.386 4.837a.533.533 0 010 1.066.533.533 0 010-1.066zM3.198 6.969c0-.294.239-.533.533-.533h21.324c.294 0 .533.239.533.533v2.239l-1.066 1.013V8.036a.534.534 0 00-.534-.534H4.797a.534.534 0 00-.534.533v13.327c0 .294.239.533.534.533h19.191a.534.534 0 00.534-.533v-9.675l1.066-1.01v12.284H3.198V6.969zm4.798 6.93h-.005a1.6 1.6 0 101.112 2.748l1.853.93a.533.533 0 00.636-.123l3.939-4.432 3.872 2.902a.534.534 0 00.686-.039l3.365-3.188v8.132H5.329V8.568h18.125v2.661l-3.772 3.572-3.904-2.927a.534.534 0 00-.718.071v.001l-3.993 4.493-1.493-.747c.011-.064.017-.128.02-.193A1.6 1.6 0 007.995 13.9zm.533 1.6a.533.533 0 01-1.066 0 .533.533 0 011.066 0zm3.199 8.529h5.331v.533a.533.533 0 01-.533.533h-4.265a.533.533 0 01-.533-.533v-.533zm-10.661.533c0-.294.238-.533.533-.533h9.063v.533a1.6 1.6 0 001.599 1.599h4.265a1.6 1.6 0 001.599-1.599v-.533h9.063c.294 0 .533.239.533.533v2.132a.533.533 0 01-.533.533H1.601a.533.533 0 01-.533-.533v-2.132z"/></symbol><symbol id="icon-facebook" viewBox="0 0 32 32"><path d="M21.337 5.314h2.924V.224A36.528 36.528 0 0020.152 0h-.156.008c-4.215 0-7.102 2.651-7.102 7.523v4.482H8.254v5.69h4.648v14.318h5.702V17.696h4.461l.707-5.69h-5.17V8.083c0-1.644.443-2.769 2.736-2.769z"/></symbol><symbol id="icon-forester-peters" viewBox="0 0 65 32"><path  d="M10.017 9.987h-.002c-1.827 0-3.308 1.316-3.308 2.94v.002c0 1.624 1.481 2.94 3.308 2.94h.002c1.827 0 3.308-1.317 3.308-2.94v-.002c0-1.624-1.481-2.941-3.308-2.941zm24.419-.94c-.005-2.255-1.016-4.418-2.81-6.013S27.399.541 24.862.536c-2.539.004-4.972.902-6.768 2.497s-2.806 3.757-2.812 6.013v12.437s19.151-1.896 19.153-12.435v-.002zM0 25.566c.005 1.57.709 3.073 1.957 4.183s2.94 1.735 4.706 1.74c1.765-.005 3.457-.63 4.706-1.74s1.952-2.613 1.957-4.182v-8.654S.001 18.233.001 25.566zm6.662 1.55c-.345 0-.682-.091-.969-.261a1.617 1.617 0 01-.638-.686l-.004-.009a1.394 1.394 0 01-.097-.904l-.002.009a1.5 1.5 0 01.477-.794 1.81 1.81 0 01.882-.423l.011-.002a1.948 1.948 0 011.022.092l-.013-.004c.319.117.592.316.783.571s.294.555.294.861c.001.204-.043.407-.131.596a1.555 1.555 0 01-.376.503l-.002.001a1.77 1.77 0 01-.567.338 1.907 1.907 0 01-.668.119h-.001v-.006zm13.467-.853h-1.286v1.328h-.67V24.34h2.117v.543h-1.447v.84h1.286v.54zm3.218-.224c0 .32-.056.6-.169.841s-.276.427-.488.558a1.32 1.32 0 01-.698.197h-.025.001c-.27 0-.511-.065-.722-.194a1.296 1.296 0 01-.487-.546l-.003-.008a1.882 1.882 0 01-.177-.804v-.028.001-.16c0-.32.058-.602.172-.844a1.285 1.285 0 011.212-.757c.271 0 .511.066.721.197.211.13.374.316.489.56.116.242.174.523.174.841v.145zm-.678-.147c0-.341-.061-.6-.183-.777a.596.596 0 00-.496-.266l-.028.001h.001l-.025-.001a.597.597 0 00-.494.262l-.001.002c-.122.174-.184.43-.185.768v.158c0 .331.061.589.183.772s.297.274.527.274l.026.001a.59.59 0 00.49-.261l.001-.002c.12-.177.181-.434.183-.773v-.158zm2.85.845l.001-.019a.34.34 0 00-.133-.27l-.001-.001c-.089-.069-.25-.14-.482-.214a3.473 3.473 0 01-.57-.232l.019.009c-.37-.2-.554-.469-.554-.806 0-.175.049-.332.147-.469a.975.975 0 01.427-.324c.186-.077.395-.116.625-.116.232 0 .439.042.621.127a.97.97 0 01.421.355.926.926 0 01.152.522h-.671a.434.434 0 00-.14-.346c-.094-.084-.226-.125-.395-.125-.164 0-.291.035-.382.105a.325.325 0 00-.136.265v.008c0 .106.053.194.158.266.107.071.264.138.471.2.381.114.658.257.833.427s.261.381.261.634c0 .281-.107.503-.32.663s-.498.239-.859.239c-.25 0-.478-.046-.683-.137a1.11 1.11 0 01-.469-.373l-.002-.003a.962.962 0 01-.16-.533v-.022.001h.671c0 .358.214.538.643.538a.634.634 0 00.373-.096.32.32 0 00.134-.259v-.013.001zm3.574-1.854h-.995v2.708h-.671v-2.708h-.981v-.543h2.647v.543zm2.339 1.299h-1.285v.871h1.509v.538h-2.178V24.34h2.175v.543h-1.505v.775h1.286v.524zm1.82.219h-.533v1.19h-.67V24.34h1.208c.384 0 .68.086.888.257s.312.413.312.725a.996.996 0 01-.145.556.977.977 0 01-.429.35l-.006.002.703 1.328v.03h-.718l-.61-1.189zm-.533-.543h.541c.168 0 .297-.042.39-.126a.46.46 0 00.139-.33l-.001-.026v.001c0-.154-.043-.274-.131-.362s-.219-.132-.4-.132h-.538v.975zm4.058.588v1.145h-.67V24.34h1.268c.244 0 .459.045.643.134a.98.98 0 01.429.382c.099.164.149.351.149.56 0 .319-.11.57-.328.754-.218.183-.519.275-.904.275h-.587zm0-.543h.598c.178 0 .312-.042.404-.125a.454.454 0 00.141-.357l.001-.024a.534.534 0 00-.141-.363.527.527 0 00-.389-.152h-.614v1.021zm4.236.279h-1.285v.871h1.509v.538h-2.178V24.34h2.175v.543h-1.505v.775h1.286v.524zm3.108-1.299h-.996v2.708h-.67v-2.708h-.982v-.543h2.648v.543zm2.339 1.299h-1.285v.871h1.509v.538h-2.179V24.34h2.175v.543h-1.504v.775h1.285v.524zm1.82.219h-.533v1.19h-.67V24.34h1.208c.384 0 .68.086.888.257s.312.413.312.725c0 .222-.049.408-.145.556a.982.982 0 01-.429.35l-.006.002.703 1.328v.03h-.718l-.61-1.189zm-.534-.543h.54c.168 0 .298-.042.39-.126a.46.46 0 00.139-.331l-.001-.025v.001a.484.484 0 00-.132-.362c-.086-.088-.219-.132-.399-.132h-.538v.975zm3.936.88l.001-.019a.34.34 0 00-.134-.271l-.001-.001c-.089-.069-.25-.14-.482-.214a3.473 3.473 0 01-.57-.232l.019.009c-.37-.2-.554-.469-.554-.806 0-.175.05-.332.147-.469a.975.975 0 01.427-.324c.186-.077.395-.116.625-.116.232 0 .439.042.621.127a.97.97 0 01.421.355.926.926 0 01.152.522h-.67a.434.434 0 00-.14-.346c-.094-.084-.226-.125-.395-.125-.164 0-.291.035-.382.105a.326.326 0 00-.137.265v.007c0 .106.053.194.159.266s.264.138.471.2c.381.114.658.257.833.427s.261.381.261.634c0 .281-.107.503-.32.663s-.499.239-.859.239c-.25 0-.478-.046-.683-.137a1.11 1.11 0 01-.469-.373l-.002-.003a.962.962 0 01-.16-.533v-.022.001h.671c0 .358.214.538.643.538a.634.634 0 00.373-.096.317.317 0 00.134-.26v-.013.001z"/></symbol><symbol id="icon-instagram" viewBox="0 0 32 32"><path d="M31.982 9.412c-.074-1.702-.349-2.87-.743-3.883a7.845 7.845 0 00-1.851-2.838l-.001-.001A7.896 7.896 0 0026.608.863l-.054-.018c-1.02-.394-2.182-.667-3.883-.743C20.958.02 20.414.001 16.067.001c-4.346 0-4.89.019-6.598.094-1.7.074-2.87.349-3.882.743a7.831 7.831 0 00-2.84 1.851l-.001.001A7.893 7.893 0 00.92 5.469l-.018.054C.507 6.543.233 7.705.158 9.406.076 11.119.057 11.663.057 16.01c0 4.346.019 4.89.094 6.598.075 1.702.351 2.87.744 3.883a7.95 7.95 0 001.849 2.839l.001.001c.8.813 1.77 1.444 2.833 1.844 1.02.395 2.183.671 3.883.744 1.708.075 2.252.094 6.598.094 4.347 0 4.892-.019 6.598-.094 1.702-.074 2.87-.349 3.883-.743a8.237 8.237 0 004.666-4.63l.019-.055c.394-1.02.669-2.183.744-3.883.075-1.708.093-2.252.093-6.598s-.006-4.89-.08-6.598zM29.1 22.483c-.07 1.564-.333 2.407-.551 2.971a5.344 5.344 0 01-3.005 3.026l-.036.013c-.56.219-1.412.482-2.969.551-1.689.075-2.195.094-6.467.094-4.271 0-4.784-.019-6.467-.094-1.564-.069-2.407-.331-2.971-.551A4.935 4.935 0 014.798 27.3l-.001-.001a4.987 4.987 0 01-1.184-1.803l-.011-.034c-.218-.563-.48-1.413-.549-2.971-.075-1.689-.094-2.196-.094-6.467 0-4.272.019-4.786.094-6.467.069-1.564.331-2.407.549-2.971a4.891 4.891 0 011.199-1.838l.002-.002A4.97 4.97 0 016.61 3.563l.034-.011c.56-.219 1.412-.48 2.969-.551 1.689-.074 2.196-.093 6.467-.093 4.277 0 4.784.019 6.467.093 1.564.069 2.407.331 2.971.551a4.934 4.934 0 011.838 1.194c.531.52.938 1.144 1.196 1.841.218.56.48 1.412.549 2.969.075 1.689.094 2.195.094 6.467 0 4.271-.019 4.77-.094 6.46z"/><path d="M16.066 7.786a8.226 8.226 0 00-8.223 8.224 8.226 8.226 0 0016.448.009v-.009a8.226 8.226 0 00-8.224-8.224zm0 13.558a5.335 5.335 0 01.001-10.67h.001a5.336 5.336 0 110 10.672zm10.47-13.883a1.92 1.92 0 11-3.842 0 1.92 1.92 0 113.842 0z"/></symbol><symbol id="icon-linkedin" viewBox="0 0 32 32"><path d="M32.006 32.014h.008V20.271c0-5.743-1.237-10.168-7.951-10.168-3.229 0-5.394 1.77-6.279 3.451h-.093v-2.915h-6.368v21.372h6.63V21.429c0-2.787.528-5.482 3.979-5.482 3.4 0 3.449 3.181 3.449 5.66v10.406h6.624zM.528 10.64h6.638v21.374H.528V10.64zM3.845 0A3.845 3.845 0 000 3.845c0 2.121 1.722 3.88 3.845 3.88 2.121 0 3.843-1.758 3.843-3.88S5.967.002 3.845 0z"/></symbol><symbol id="icon-mail" viewBox="0 0 43 32"><path d="M38.689.004H4.002A4.007 4.007 0 000 4.006V28.02a4.007 4.007 0 004.002 4.002h34.687a4.007 4.007 0 004.002-4.002V4.006A4.007 4.007 0 0038.689.004zm0 2.669c.181 0 .355.037.512.104L21.345 18.253 3.489 2.777c.151-.065.327-.104.512-.104h34.687zm0 26.682H4.002a1.334 1.334 0 01-1.334-1.334V5.594l17.802 15.43a1.33 1.33 0 001.752-.002l-.002.001 17.802-15.43V28.02c0 .737-.597 1.334-1.334 1.334z"/></symbol><symbol id="icon-tag-line" viewBox="0 0 67 32"><path  d="M33.729 15.228a2.084 2.084 0 01-.43-1.42v.006-2.051c0-.628.142-1.106.428-1.433.284-.327.775-.489 1.469-.488.652 0 1.116.139 1.389.417.299.355.444.789.411 1.226v.482H35.83v-.489a2.465 2.465 0 00-.034-.477.464.464 0 00-.166-.283l-.001-.001a.672.672 0 00-.373-.112l-.052.002h.002a.712.712 0 00-.447.118l.003-.002a.55.55 0 00-.193.309l-.001.004a2.28 2.28 0 00-.047.467v.042-.002 2.489c-.019.24.033.48.149.698a.55.55 0 00.23.168l.004.001a.633.633 0 00.305.039h-.003a.63.63 0 00.414-.114l-.002.001a.503.503 0 00.174-.299v-.003c.027-.165.04-.332.036-.499v-.505h1.167v.461a1.866 1.866 0 01-.406 1.293l.003-.004c-.268.304-.725.457-1.397.457s-1.179-.163-1.467-.501zm4.859.021c-.295-.32-.442-.784-.442-1.4v-2.157c0-.61.147-1.07.442-1.383s.787-.469 1.479-.467c.686 0 1.176.156 1.471.467.294.313.444.774.444 1.383v2.156c0 .61-.149 1.077-.449 1.398s-.787.481-1.466.481-1.181-.163-1.479-.479zm2.022-.517c.106-.199.154-.419.14-.638v-2.641a1.18 1.18 0 00-.14-.632l.003.006a.558.558 0 00-.234-.17l-.004-.001a.622.622 0 00-.312-.037h.003a.643.643 0 00-.313.038l.004-.002a.569.569 0 00-.239.171l-.001.001c-.107.195-.154.41-.14.626v2.653c-.014.22.033.439.14.639a.732.732 0 00.246.158.832.832 0 00.605-.002l-.006.002a.723.723 0 00.246-.158v-.013zm2.776-4.827h1.256l.944 3.979.967-3.979h1.222l.124 5.744h-.904l-.097-3.992-.932 3.992h-.725l-.966-4.007-.09 4.007h-.913l.114-5.744zm5.922 0h1.957c1.127 0 1.691.543 1.691 1.631 0 1.041-.594 1.562-1.781 1.56h-.666v2.553h-1.208l.007-5.744zm1.672 2.455a.93.93 0 00.665-.182.928.928 0 00.174-.649l.001-.063c0-.163-.022-.321-.062-.471l.003.013a.43.43 0 00-.089-.158.502.502 0 00-.149-.114l-.003-.001a1.24 1.24 0 00-.476-.094l-.066.002h.003-.469v1.717h.469zm3.719-2.455h1.297l1.331 5.744H56.2l-.263-1.324H54.78l-.27 1.324h-1.143l1.331-5.744zm1.108 3.755l-.452-2.411-.452 2.411h.903zm2.595-3.755h.846l1.618 3.277V9.905h1.003v5.744h-.804l-1.629-3.421v3.421H58.4l.002-5.744zm5.815 3.553l-1.346-3.545h1.134l.821 2.278.77-2.278h1.109l-1.329 3.546v2.19h-1.159v-2.191zm-28.623 4.703v.3h-.986v2.334h-.413v-2.334h-.991v-.3h2.39zm3.09 2.634h-.328a.141.141 0 01-.081-.025.137.137 0 01-.052-.06v-.001l-.285-.626H36.57l-.284.626a.168.168 0 01-.044.071.144.144 0 01-.082.025h-.326l1.208-2.634h.42l1.223 2.624zm-2-.978h1.14l-.484-1.073a1.765 1.765 0 01-.086-.235l-.003-.014c-.017.05-.031.098-.046.14l-.044.11-.478 1.07zm4.083.719c.076.004.151.004.228 0a1.41 1.41 0 00.193-.031c.059-.012.117-.028.174-.048.053-.018.107-.042.161-.065V19.8h-.487a.095.095 0 01-.061-.022.06.06 0 01-.018-.021.048.048 0 01-.006-.024V19.528h.937v1.01a1.792 1.792 0 01-.496.211l-.013.003c-.1.026-.2.043-.302.055a3.774 3.774 0 01-.353.016h-.015c-.212 0-.416-.036-.606-.102l.013.004a1.499 1.499 0 01-.486-.277l.002.002a1.276 1.276 0 01-.308-.409l-.003-.008a1.3 1.3 0 01-.111-.529v-.019-.015c0-.193.04-.377.112-.543l-.003.009c.069-.156.176-.299.312-.417.138-.119.302-.211.484-.273.206-.068.427-.101.647-.098.112 0 .225.007.336.023a1.62 1.62 0 01.529.172c.074.041.144.087.211.137l-.116.163a.101.101 0 01-.039.035h-.001a.112.112 0 01-.055.014.156.156 0 01-.075-.021h.001a1.595 1.595 0 01-.126-.066l.007.004a1.098 1.098 0 00-.154-.069l-.008-.002a1.522 1.522 0 00-.213-.057l-.009-.001a1.749 1.749 0 00-.29-.023h-.017.001-.015c-.162 0-.317.027-.462.076l.01-.003a1.022 1.022 0 00-.356.208.93.93 0 00-.222.321l-.002.006a1.234 1.234 0 00.003.887l-.003-.008a.938.938 0 00.242.332c.099.09.219.161.352.208.154.046.316.063.479.052zm3.851-.041h1.319v.3h-1.722v-2.634h.413l-.009 2.334zm2.691.3h-.413v-2.634h.413v2.634zm1.537-2.621a.2.2 0 01.063.047l1.766 1.986-.002-.047.002-.049v.002-1.963h.36v2.646h-.222a.196.196 0 01-.077-.016h.001a.23.23 0 01-.065-.05l-1.764-1.984v2.048h-.346V18.16h.215c.023 0 .047.004.068.012zm5.231-.013v.289h-1.464v.87h1.186v.279h-1.186v.9h1.464v.289h-1.889V18.16h1.889zM10.783 1.891l18.345 4.497v15.759l-18.345-4.495V1.89zM9.606.547v17.87l20.696 5.075V5.624L9.607.547z"/><path d="M20.699 31.788L0 26.709V8.841l20.699 5.077v17.87z"/><path d="M9.95 1.689L28.056 6.13l-7.699 6.65L2.248 8.337l7.703-6.648zM9.606.548L0 8.841l20.699 5.078 9.604-8.295L9.607.548zm12.257 30.235l8.44-7.289-8.441-2.07v9.359z"/></symbol><symbol id="icon-tagline-here" viewBox="0 0 25 32"><path d="M10.533 1.806h-.084a9.985 9.985 0 00-.388-.014h-.28c-.244 0-.494.006-.741.018l-.028-.001-.029.001h.001a17.353 17.353 0 00-6.576 1.696l.104-.045-.266.128v13.626l.623-.212A23.32 23.32 0 014.6 16.49c1.488-.398 3.202-.638 4.967-.661h.014v1.79c-.223.001-.439.007-.655.018h-.052a20.04 20.04 0 00-3.971.619l.139-.031a19.424 19.424 0 00-4.667 1.831l.1-.051V2.529A17.896 17.896 0 015.14.608L5.267.58a17.862 17.862 0 014.51-.582h.267c.314.008.622.022.91.044.829.06 1.597.187 2.339.379l-.09-.02v1.762a13.17 13.17 0 00-2.134-.326l-.045-.003-.044-.004c-.152-.013-.304-.026-.446-.026zm3.101 1.801c.391.03.796.044 1.205.044a19.381 19.381 0 004.882-.64l-.135.03a19.475 19.475 0 004.665-1.831l-.101.051v17.164a17.972 17.972 0 01-4.664 1.921l-.127.028a17.962 17.962 0 01-4.511.581h-.115c-1.177 0-2.319-.147-3.409-.425l.095.021V3.275c.265.062.537.118.814.164.455.077.934.133 1.401.167zm8.735.133l-.623.209c-.572.193-1.151.365-1.731.518-1.551.415-3.332.657-5.169.663h-.004c-.406 0-.78-.011-1.141-.034l-.497-.033V19.08l.426.037c.395.035.803.052 1.214.052a16.554 16.554 0 004.189-.553l-.116.026a16.96 16.96 0 003.285-1.189l-.102.044.266-.128V3.739zM1.685 25.977a.916.916 0 00-.661-.281l-.034.001h.002-.014c-.139 0-.272.028-.393.078l.007-.003a.904.904 0 00-.51.512l-.002.006a1.001 1.001 0 00-.071.386v2.335c-.006.164.026.328.092.479.055.12.135.226.234.313a.824.824 0 00.32.166c.114.031.231.048.349.048a.986.986 0 00.968-.983v-.261h-.611v.222c0 .07-.013.136-.037.198l.001-.004a.38.38 0 01-.089.132.426.426 0 01-.255.089.308.308 0 01-.286-.125l-.001-.001a.548.548 0 01-.082-.289l.001-.024v.001-2.177a.74.74 0 01.075-.349.31.31 0 01.262-.143l.038.002H.987h.012c.107 0 .201.052.26.131l.001.001a.493.493 0 01.101.3v.014-.001.202h.604v-.238-.011c0-.143-.027-.28-.077-.405l.003.007a.955.955 0 00-.205-.329zm3.626-.025a1.051 1.051 0 00-1.058-.191.964.964 0 00-.557.512l-.002.006a1.08 1.08 0 00-.089.452v2.239c-.004.158.026.314.089.458a.888.888 0 00.236.313.964.964 0 00.322.197 1.049 1.049 0 001.059-.198l-.001.001a.948.948 0 00.23-.313c.063-.144.093-.301.089-.458v-2.239-.02c0-.156-.033-.305-.092-.439l.003.007a1.016 1.016 0 00-.23-.327zm-.285 3.018l.002.035a.398.398 0 01-.123.289.446.446 0 01-.575 0l.001.001a.398.398 0 01-.121-.326v.002-2.239l-.001-.034c0-.114.047-.216.123-.289a.446.446 0 01.575 0l-.001-.001a.398.398 0 01.121.326v-.002 2.24zm5.047 1v-4.24h-.586l-.771 2.244h-.01l-.777-2.244h-.58v4.239h.606V27.39h.011l.593 1.823h.302l.598-1.823h.01v2.579h.606zm3.441-3.942a.834.834 0 00-.342-.232 1.31 1.31 0 00-.416-.066h-.024.001-.9v4.24h.604v-1.656h.311c.189.009.376-.031.545-.116a.88.88 0 00.329-.32l.002-.004a1 1 0 00.138-.369c.021-.133.033-.287.033-.444v-.04.002a2.426 2.426 0 00-.059-.606.906.906 0 00-.223-.39zm-.311 1.292a.538.538 0 01-.057.224l.001-.003a.342.342 0 01-.154.147l-.002.001a.617.617 0 01-.254.054l-.033-.001h.002-.276v-1.441h.311l.029-.001c.088 0 .172.02.247.055l-.004-.002a.35.35 0 01.141.154l.001.002a.62.62 0 01.053.236v.282c0 .098.006.201 0 .291h-.006zm3.173-1.59h-.495l-.934 4.24h.604l.177-.911h.823l.178.911h.604l-.958-4.24zm-.558 2.752l.297-1.537h.011l.295 1.537h-.604zm4.461-.198h-.011l-.912-2.554h-.581v4.24h.604v-2.55h.012l.923 2.549h.568V25.73h-.604v2.554zm3.691-2.554l-.486 1.686h-.012l-.486-1.686h-.639l.83 2.448v1.791h.604v-1.791l.83-2.447h-.64zM.001 31.167h.291v.817H.49v-.817h.289V31H.001v.168zm2.447-.168l-.382.985h.21l.081-.224h.392l.084.224h.215l-.391-.985h-.21zm-.03.595l.134-.365.134.365h-.268zm2.45.027h.228v.127a.378.378 0 01-.234.083h-.014a.25.25 0 01-.195-.094.406.406 0 01-.073-.234l.001-.023v.001c0-.219.095-.329.283-.329l.021-.001c.097 0 .178.067.201.157v.001l.194-.038c-.042-.192-.18-.289-.417-.289H4.85a.492.492 0 00-.331.127.48.48 0 00-.141.38v-.002.023c0 .132.048.254.127.347l-.001-.001c.087.09.209.146.343.146l.032-.001h-.001.016c.155 0 .296-.06.402-.157v-.388H4.87v.166zm2.47-.622h-.199v.985h.689v-.167h-.49V31zm2.09 0h-.199v.985h.199v-.985zm2.042.657l-.404-.657h-.193v.985h.185v-.643l.396.643h.198v-.985h-.182v.658zm1.846-.106h.49v-.167h-.49v-.215h.527V31h-.727v.985h.747v-.167h-.548v-.266zm4.478-.163h-.388v-.388h-.197v.984h.197v-.431h.388v.431h.198v-.985h-.198v.388zm1.857.163h.492v-.167h-.492v-.215h.529V31h-.726v.985h.746v-.167h-.548v-.266zm2.519.001c.171-.027.258-.118.258-.274a.23.23 0 00-.096-.219h-.001a.555.555 0 00-.25-.059l-.04.001h.002-.417v.984h.198v-.412h.055c.039 0 .076.008.109.023l-.002-.001a.201.201 0 01.07.072l.215.313h.236l-.12-.192a.704.704 0 00-.215-.235l-.002-.002zm-.2-.137h-.146v-.247h.156a.515.515 0 01.205.024l-.004-.001a.13.13 0 01-.009.2.537.537 0 01-.164.025l-.039-.001h.002zm2.099.136h.49v-.167h-.49v-.215h.529V31h-.729v.985h.747v-.167h-.548v-.266z"/></symbol><symbol id="icon-tel" viewBox="0 0 20 32"><path d="M17.008 0H3A3.006 3.006 0 00-.002 3.002v26.015A3.006 3.006 0 003 32.019h14.008a3.006 3.006 0 003.002-3.002V3.002A3.006 3.006 0 0017.008 0zM3 2.001h14.008a1 1 0 011.001 1.001v21.012H2V3.002a1 1 0 011.001-1.001zm14.008 28.017H3a1 1 0 01-1.001-1.001v-3.002h16.009v3.002a1 1 0 01-1.001 1.001z"/></symbol><symbol id="icon-twitter" viewBox="0 0 32 32"><path d="M32.014 6.081A13.288 13.288 0 0128.3 7.11l-.068.007a6.56 6.56 0 002.875-3.581l.013-.046a12.87 12.87 0 01-4.078 1.574l-.084.014a6.561 6.561 0 00-11.35 4.485v.004c0 .52.043 1.021.152 1.497C10.303 10.798 5.476 8.183 2.233 4.2a6.541 6.541 0 00-.903 3.314v.001a6.575 6.575 0 002.915 5.454 6.442 6.442 0 01-2.995-.824l.033.017v.072a6.595 6.595 0 005.215 6.443l.043.008a6.41 6.41 0 01-1.663.215h-.061.003c-.419 0-.844-.024-1.242-.112.85 2.599 3.262 4.511 6.132 4.572a13.106 13.106 0 01-8.126 2.801h-.013.001-.062c-.532 0-1.055-.034-1.569-.099l.061.006c2.828 1.847 6.29 2.945 10.008 2.945h.063-.003c12.077 0 18.68-10.004 18.68-18.677 0-.288-.01-.57-.024-.848a13.215 13.215 0 003.26-3.356l.03-.047z"/></symbol><symbol id="icon-ya-co" viewBox="0 0 28 32"><path d="M4.084 0l4.772 4.517-8.858-.005V26.43H23.15v-8.38l4.767 4.513V.001H4.084zm18.857 17.519L9.411 4.711h13.53v12.808zm-4.201 5.704H3.662V8.483h1.066v13.742H18.74v.998zM7.223 29.348l-.557 1.147-.557-1.147h-.467l.813 1.529v.891h.422v-.891l.811-1.529h-.465zm.7 2.421l.196-.564h.938l.197.564h.439l-.916-2.421h-.378l-.914 2.421h.437zm.665-1.906l.351 1.004h-.701l.351-1.004zm2.218.945a.544.544 0 00-.091.303v.004c0 .204.072.37.214.497s.336.19.575.19a1 1 0 00.618-.195l.136.161h.469l-.355-.421c.14-.191.209-.435.209-.733h-.351a.973.973 0 01-.101.444l-.468-.552.165-.12a.922.922 0 00.249-.249l.002-.003a.53.53 0 00.076-.275v-.004-.009a.495.495 0 00-.169-.374h-.001a.61.61 0 00-.408-.157h-.025.001c-.195 0-.35.056-.465.166s-.173.259-.173.449c0 .078.018.157.054.241.038.083.104.184.197.302-.179.129-.3.24-.36.334zm1.092.536a.613.613 0 01-.382.136h-.02a.395.395 0 01-.27-.106.362.362 0 01-.109-.259v-.014.001c0-.129.067-.245.2-.346l.052-.037.528.624zm-.434-1.073c-.114-.141-.172-.257-.172-.351 0-.081.024-.148.07-.201a.239.239 0 01.178-.081h.01-.001.009c.067 0 .127.026.173.068a.214.214 0 01.072.161v.009a.3.3 0 01-.103.226l-.052.041-.185.127zm3.94 1.315c.166-.145.261-.347.286-.605h-.419c-.022.173-.075.296-.158.37s-.208.112-.372.112c-.18 0-.318-.069-.412-.206s-.14-.337-.14-.599v-.214c.003-.259.052-.453.15-.587a.494.494 0 01.422-.201c.157 0 .276.039.357.116s.133.202.153.376h.419c-.027-.265-.121-.47-.285-.615s-.378-.218-.645-.218a.978.978 0 00-.525.142.925.925 0 00-.345.396l-.002.006a1.396 1.396 0 00-.122.576v.03-.001.226c.003.223.045.418.125.587s.193.298.339.39a.955.955 0 00.511.136c.276 0 .497-.072.663-.216zm2.472-.339c.082-.18.123-.388.123-.625v-.134-.024c0-.216-.047-.421-.131-.605l.004.009a.932.932 0 00-.35-.406l-.004-.002c-.152-.095-.326-.143-.524-.143s-.372.048-.525.144a.939.939 0 00-.354.414c-.079.175-.125.38-.125.595v.032-.002.136c.001.232.043.436.126.613a.95.95 0 00.356.411.98.98 0 00.525.143.971.971 0 00.526-.143.935.935 0 00.352-.413zm-.45-1.369c.102.143.153.349.153.618v.126c0 .272-.05.48-.151.622a.49.49 0 01-.429.213h-.017a.5.5 0 01-.413-.217l-.001-.002c-.104-.145-.155-.351-.155-.617v-.14c.002-.26.054-.462.156-.603a.496.496 0 01.41-.215h.018-.001c.187 0 .33.072.431.215z"/></symbol><symbol id="icon-vector" viewBox="0 0 32 32"><path d="M32 3.223l-3.223-3.223-12.777 12.777-12.777-12.777-3.223 3.223 12.777 12.777-12.777 12.777 3.223 3.223 12.777-12.777 12.777 12.777 3.223-3.223-12.777-12.777 12.777-12.777z"/></symbol></defs></svg>